<svg data-v-423bf9ae="" xmlns="http://www.w3.org/2000/svg" viewBox="0 0 432 90" class="iconLeft"><!----><!----><!----><g data-v-423bf9ae="" id="3ec8dc09-b206-4fe3-b4e8-445b5a7f905b" fill="#ADC4E2" transform="matrix(5.08044053456799,0,0,5.08044053456799,115.89331714592396,-0.546148221910066)" AddType="image/svg+xml .svg .svgz"><path d="M3.78 3.23L5.76 3.23L5.76 3.23Q5.48 3.58 5.20 3.91L5.20 3.91L5.20 3.91Q4.92 4.25 4.66 4.59L4.66 4.59L4.66 4.59Q4.53 4.77 4.43 4.93L4.43 4.93L4.43 4.93Q4.33 5.08 4.26 5.24L4.26 5.24L4.26 5.24Q4.19 5.39 4.16 5.57L4.16 5.57L4.16 5.57Q4.13 5.75 4.13 5.97L4.13 5.97L4.13 11.44L4.13 11.44Q4.13 12.12 3.87 12.74L3.87 12.74L3.87 12.74Q3.60 13.36 3.15 13.83L3.15 13.83L3.15 13.83Q2.70 14.31 2.10 14.59L2.10 14.59L2.10 14.59Q1.50 14.87 0.81 14.87L0.81 14.87L0.81 14.87Q0.25 14.87-0.24 14.67L-0.24 14.67L-0.24 14.67Q-0.74 14.47-1.16 14.12L-1.16 14.12L-0.01 13.09L-0.01 13.09Q0.09 13.30 0.27 13.52L0.27 13.52L0.27 13.52Q0.46 13.75 0.68 13.93L0.68 13.93L0.68 13.93Q0.91 14.12 1.16 14.24L1.16 14.24L1.16 14.24Q1.41 14.36 1.65 14.36L1.65 14.36L1.65 14.36Q1.99 14.36 2.20 14.19L2.20 14.19L2.20 14.19Q2.41 14.03 2.52 13.78L2.52 13.78L2.52 13.78Q2.63 13.53 2.67 13.23L2.67 13.23L2.67 13.23Q2.71 12.93 2.71 12.67L2.71 12.67L2.71 6.76L2.71 6.76Q2.71 6.44 2.85 6.13L2.85 6.13L2.85 6.13Q2.98 5.82 3.19 5.55L3.19 5.55L3.19 5.55Q3.39 5.27 3.64 5.03L3.64 5.03L3.64 5.03Q3.88 4.79 4.12 4.59L4.12 4.59L2.60 4.59L2.60 4.59Q2.34 4.59 2.14 4.65L2.14 4.65L2.14 4.65Q1.93 4.70 1.76 4.79L1.76 4.79L1.76 4.79Q1.59 4.89 1.43 5.03L1.43 5.03L1.43 5.03Q1.27 5.17 1.11 5.37L1.11 5.37L0.91 5.14L0.91 5.14Q1.14 4.83 1.46 4.49L1.46 4.49L1.46 4.49Q1.78 4.15 2.16 3.87L2.16 3.87L2.16 3.87Q2.53 3.60 2.94 3.41L2.94 3.41L2.94 3.41Q3.36 3.23 3.78 3.23L3.78 3.23ZM8.18 13.19L8.18 13.19L8.18 13.19Q7.67 13.19 7.23 13.01L7.23 13.01L7.23 13.01Q6.79 12.83 6.46 12.51L6.46 12.51L6.46 12.51Q6.14 12.19 5.95 11.75L5.95 11.75L5.95 11.75Q5.76 11.32 5.76 10.81L5.76 10.81L5.76 10.81Q5.76 10.23 5.95 9.72L5.95 9.72L5.95 9.72Q6.15 9.21 6.48 8.80L6.48 8.80L6.48 8.80Q6.82 8.39 7.28 8.09L7.28 8.09L7.28 8.09Q7.75 7.79 8.29 7.62L8.29 7.62L8.48 7.85L8.48 7.85Q8.18 8.08 7.91 8.37L7.91 8.37L7.91 8.37Q7.64 8.66 7.44 9.00L7.44 9.00L7.44 9.00Q7.25 9.34 7.13 9.71L7.13 9.71L7.13 9.71Q7.01 10.08 7.01 10.47L7.01 10.47L7.01 10.47Q7.01 10.80 7.11 11.16L7.11 11.16L7.11 11.16Q7.21 11.53 7.40 11.83L7.40 11.83L7.40 11.83Q7.59 12.13 7.88 12.32L7.88 12.32L7.88 12.32Q8.17 12.52 8.55 12.52L8.55 12.52L8.55 12.52Q8.89 12.52 9.14 12.39L9.14 12.39L9.14 12.39Q9.39 12.27 9.56 12.06L9.56 12.06L9.56 12.06Q9.72 11.85 9.80 11.56L9.80 11.56L9.80 11.56Q9.88 11.28 9.88 10.96L9.88 10.96L9.88 10.96Q9.88 10.60 9.74 10.21L9.74 10.21L9.74 10.21Q9.60 9.82 9.35 9.50L9.35 9.50L9.35 9.50Q9.10 9.17 8.76 8.95L8.76 8.95L8.76 8.95Q8.43 8.73 8.05 8.70L8.05 8.70L8.05 8.70Q8.29 8.42 8.57 8.19L8.57 8.19L8.57 8.19Q8.86 7.96 9.15 7.75L9.15 7.75L9.15 7.75Q9.55 7.88 9.85 8.13L9.85 8.13L9.85 8.13Q10.16 8.38 10.37 8.71L10.37 8.71L10.37 8.71Q10.58 9.04 10.68 9.42L10.68 9.42L10.68 9.42Q10.79 9.81 10.79 10.21L10.79 10.21L10.79 10.21Q10.79 10.75 10.61 11.28L10.61 11.28L10.61 11.28Q10.42 11.81 10.07 12.24L10.07 12.24L10.07 12.24Q9.73 12.67 9.25 12.93L9.25 12.93L9.25 12.93Q8.76 13.19 8.18 13.19ZM16.98 12.03L17.16 12.24L17.16 12.24Q17.08 12.41 16.96 12.57L16.96 12.57L16.96 12.57Q16.83 12.73 16.67 12.85L16.67 12.85L16.67 12.85Q16.51 12.97 16.32 13.05L16.32 13.05L16.32 13.05Q16.13 13.12 15.93 13.12L15.93 13.12L15.93 13.12Q15.39 13.12 15.15 12.82L15.15 12.82L15.15 12.82Q14.91 12.52 14.91 12.01L14.91 12.01L14.91 9.23L14.91 9.23Q14.91 9.17 14.90 9.11L14.90 9.11L14.90 9.11Q14.90 9.04 14.87 8.99L14.87 8.99L14.87 8.99Q14.85 8.93 14.81 8.89L14.81 8.89L14.81 8.89Q14.77 8.85 14.70 8.85L14.70 8.85L14.70 8.85Q14.52 8.85 14.36 9.00L14.36 9.00L14.36 9.00Q14.21 9.15 14.08 9.40L14.08 9.40L14.08 9.40Q13.95 9.65 13.83 9.97L13.83 9.97L13.83 9.97Q13.72 10.29 13.63 10.64L13.63 10.64L13.63 10.64Q13.54 10.99 13.48 11.33L13.48 11.33L13.48 11.33Q13.41 11.68 13.36 11.99L13.36 11.99L13.36 11.99Q13.32 12.30 13.29 12.53L13.29 12.53L13.29 12.53Q13.27 12.76 13.27 12.88L13.27 12.88L12.01 13.32L12.01 3.67L13.27 3.23L13.27 10.63L13.27 10.63Q13.31 10.38 13.40 10.07L13.40 10.07L13.40 10.07Q13.49 9.75 13.62 9.42L13.62 9.42L13.62 9.42Q13.75 9.09 13.92 8.77L13.92 8.77L13.92 8.77Q14.10 8.45 14.31 8.20L14.31 8.20L14.31 8.20Q14.53 7.96 14.80 7.80L14.80 7.80L14.80 7.80Q15.06 7.65 15.37 7.65L15.37 7.65L15.37 7.65Q15.68 7.65 15.85 7.79L15.85 7.79L15.85 7.79Q16.01 7.93 16.08 8.15L16.08 8.15L16.08 8.15Q16.15 8.36 16.16 8.62L16.16 8.62L16.16 8.62Q16.17 8.88 16.17 9.12L16.17 9.12L16.17 12.04L16.17 12.04Q16.17 12.18 16.23 12.29L16.23 12.29L16.23 12.29Q16.30 12.41 16.45 12.41L16.45 12.41L16.45 12.41Q16.62 12.41 16.75 12.28L16.75 12.28L16.75 12.28Q16.89 12.15 16.98 12.03L16.98 12.03ZM23.43 12.03L23.63 12.24L23.63 12.24Q23.55 12.41 23.42 12.57L23.42 12.57L23.42 12.57Q23.29 12.73 23.13 12.85L23.13 12.85L23.13 12.85Q22.97 12.97 22.78 13.05L22.78 13.05L22.78 13.05Q22.60 13.12 22.40 13.12L22.40 13.12L22.40 13.12Q21.86 13.12 21.62 12.82L21.62 12.82L21.62 12.82Q21.38 12.52 21.38 12.01L21.38 12.01L21.38 9.23L21.38 9.23Q21.38 9.18 21.37 9.12L21.37 9.12L21.37 9.12Q21.37 9.05 21.35 8.99L21.35 8.99L21.35 8.99Q21.33 8.93 21.29 8.89L21.29 8.89L21.29 8.89Q21.26 8.85 21.20 8.85L21.20 8.85L21.20 8.85Q21.01 8.85 20.81 9.08L20.81 9.08L20.81 9.08Q20.62 9.32 20.44 9.69L20.44 9.69L20.44 9.69Q20.25 10.06 20.10 10.51L20.10 10.51L20.10 10.51Q19.95 10.97 19.83 11.42L19.83 11.42L19.83 11.42Q19.71 11.87 19.65 12.26L19.65 12.26L19.65 12.26Q19.58 12.65 19.58 12.88L19.58 12.88L18.34 13.32L18.34 8.72L18.34 8.72Q18.34 8.59 18.27 8.47L18.27 8.47L18.27 8.47Q18.20 8.36 18.06 8.36L18.06 8.36L18.06 8.36Q17.89 8.36 17.75 8.49L17.75 8.49L17.75 8.49Q17.61 8.61 17.53 8.74L17.53 8.74L17.34 8.53L17.34 8.53Q17.42 8.36 17.55 8.20L17.55 8.20L17.55 8.20Q17.68 8.04 17.84 7.92L17.84 7.92L17.84 7.92Q18.00 7.79 18.19 7.72L18.19 7.72L18.19 7.72Q18.38 7.65 18.58 7.65L18.58 7.65L18.58 7.65Q19.11 7.65 19.35 7.95L19.35 7.95L19.35 7.95Q19.58 8.24 19.58 8.75L19.58 8.75L19.58 10.98L19.58 10.98Q19.65 10.70 19.75 10.34L19.75 10.34L19.75 10.34Q19.86 9.98 20.01 9.61L20.01 9.61L20.01 9.61Q20.16 9.24 20.35 8.89L20.35 8.89L20.35 8.89Q20.54 8.54 20.76 8.26L20.76 8.26L20.76 8.26Q20.99 7.98 21.25 7.82L21.25 7.82L21.25 7.82Q21.52 7.65 21.83 7.65L21.83 7.65L21.83 7.65Q22.15 7.65 22.31 7.79L22.31 7.79L22.31 7.79Q22.48 7.93 22.55 8.15L22.55 8.15L22.55 8.15Q22.62 8.36 22.63 8.62L22.63 8.62L22.63 8.62Q22.63 8.88 22.63 9.12L22.63 9.12L22.63 12.04L22.63 12.04Q22.63 12.18 22.70 12.29L22.70 12.29L22.70 12.29Q22.77 12.41 22.91 12.41L22.91 12.41L22.91 12.41Q23.07 12.41 23.21 12.28L23.21 12.28L23.21 12.28Q23.35 12.15 23.43 12.03L23.43 12.03ZM36.09 8.15L36.09 8.15L36.09 8.15Q36.09 8.78 35.95 9.40L35.95 9.40L35.95 9.40Q35.81 10.03 35.55 10.59L35.55 10.59L35.55 10.59Q35.29 11.16 34.91 11.64L34.91 11.64L34.91 11.64Q34.53 12.13 34.04 12.49L34.04 12.49L34.04 12.49Q33.54 12.84 32.95 13.05L32.95 13.05L32.95 13.05Q32.36 13.25 31.68 13.25L31.68 13.25L31.68 13.25Q30.99 13.25 30.40 13.05L30.40 13.05L30.40 13.05Q29.81 12.84 29.32 12.49L29.32 12.49L29.32 12.49Q28.83 12.13 28.44 11.64L28.44 11.64L28.44 11.64Q28.06 11.16 27.79 10.59L27.79 10.59L27.79 10.59Q27.53 10.03 27.39 9.40L27.39 9.40L27.39 9.40Q27.25 8.78 27.25 8.15L27.25 8.15L27.25 8.15Q27.25 7.52 27.39 6.90L27.39 6.90L27.39 6.90Q27.53 6.28 27.79 5.71L27.79 5.71L27.79 5.71Q28.06 5.15 28.44 4.66L28.44 4.66L28.44 4.66Q28.83 4.17 29.32 3.81L29.32 3.81L29.32 3.81Q29.81 3.46 30.40 3.26L30.40 3.26L30.40 3.26Q30.99 3.06 31.68 3.06L31.68 3.06L31.68 3.06Q32.36 3.06 32.95 3.26L32.95 3.26L32.95 3.26Q33.54 3.46 34.04 3.81L34.04 3.81L34.04 3.81Q34.53 4.17 34.91 4.66L34.91 4.66L34.91 4.66Q35.29 5.15 35.55 5.71L35.55 5.71L35.55 5.71Q35.81 6.28 35.95 6.90L35.95 6.90L35.95 6.90Q36.09 7.52 36.09 8.15ZM31.06 3.75L31.06 3.75L31.06 3.75Q30.62 3.75 30.27 3.91L30.27 3.91L30.27 3.91Q29.93 4.06 29.66 4.32L29.66 4.32L29.66 4.32Q29.39 4.59 29.21 4.93L29.21 4.93L29.21 4.93Q29.03 5.28 28.91 5.66L28.91 5.66L28.91 5.66Q28.79 6.04 28.74 6.44L28.74 6.44L28.74 6.44Q28.68 6.84 28.68 7.20L28.68 7.20L28.68 7.20Q28.68 7.74 28.77 8.34L28.77 8.34L28.77 8.34Q28.85 8.95 29.03 9.54L29.03 9.54L29.03 9.54Q29.21 10.12 29.49 10.66L29.49 10.66L29.49 10.66Q29.78 11.20 30.18 11.61L30.18 11.61L30.18 11.61Q30.58 12.02 31.11 12.26L31.11 12.26L31.11 12.26Q31.63 12.50 32.29 12.50L32.29 12.50L32.29 12.50Q32.73 12.50 33.08 12.35L33.08 12.35L33.08 12.35Q33.42 12.20 33.69 11.93L33.69 11.93L33.69 11.93Q33.95 11.67 34.14 11.32L34.14 11.32L34.14 11.32Q34.32 10.97 34.44 10.59L34.44 10.59L34.44 10.59Q34.56 10.21 34.62 9.81L34.62 9.81L34.62 9.81Q34.67 9.41 34.67 9.04L34.67 9.04L34.67 9.04Q34.67 8.50 34.59 7.90L34.59 7.90L34.59 7.90Q34.51 7.30 34.33 6.71L34.33 6.71L34.33 6.71Q34.15 6.13 33.86 5.59L33.86 5.59L33.86 5.59Q33.58 5.05 33.17 4.65L33.17 4.65L33.17 4.65Q32.77 4.24 32.25 4.00L32.25 4.00L32.25 4.00Q31.73 3.75 31.06 3.75ZM44.74 12.03L44.93 12.24L44.93 12.24Q44.78 12.57 44.56 12.75L44.56 12.75L44.56 12.75Q44.35 12.93 44.16 13.01L44.16 13.01L44.16 13.01Q43.93 13.10 43.70 13.12L43.70 13.12L43.70 13.12Q43.39 13.12 43.20 13.02L43.20 13.02L43.20 13.02Q43.00 12.93 42.89 12.77L42.89 12.77L42.89 12.77Q42.77 12.61 42.73 12.41L42.73 12.41L42.73 12.41Q42.68 12.22 42.68 12.01L42.68 12.01L42.68 9.15L42.68 9.15Q42.68 9.04 42.64 8.95L42.64 8.95L42.64 8.95Q42.60 8.87 42.53 8.85L42.53 8.85L42.53 8.85Q42.46 8.84 42.37 8.92L42.37 8.92L42.37 8.92Q42.27 9.00 42.16 9.21L42.16 9.21L42.16 9.21Q41.98 9.76 41.83 10.36L41.83 10.36L41.83 10.36Q41.70 10.88 41.59 11.54L41.59 11.54L41.59 11.54Q41.49 12.19 41.47 12.88L41.47 12.88L40.22 13.32L40.22 9.15L40.22 9.15Q40.22 9.04 40.17 8.95L40.17 8.95L40.17 8.95Q40.13 8.87 40.06 8.85L40.06 8.85L40.06 8.85Q39.99 8.84 39.89 8.92L39.89 8.92L39.89 8.92Q39.80 9.00 39.70 9.21L39.70 9.21L39.70 9.21Q39.49 9.79 39.34 10.41L39.34 10.41L39.34 10.41Q39.27 10.68 39.21 10.98L39.21 10.98L39.21 10.98Q39.15 11.28 39.10 11.60L39.10 11.60L39.10 11.60Q39.06 11.92 39.03 12.24L39.03 12.24L39.03 12.24Q39.01 12.56 39.01 12.88L39.01 12.88L37.77 13.32L37.77 8.72L37.77 8.72Q37.77 8.56 37.69 8.46L37.69 8.46L37.69 8.46Q37.62 8.37 37.50 8.36L37.50 8.36L37.50 8.36Q37.38 8.36 37.24 8.45L37.24 8.45L37.24 8.45Q37.09 8.54 36.96 8.74L36.96 8.74L36.77 8.53L36.77 8.53Q36.93 8.20 37.14 8.02L37.14 8.02L37.14 8.02Q37.34 7.84 37.54 7.76L37.54 7.76L37.54 7.76Q37.77 7.66 38.01 7.65L38.01 7.65L38.01 7.65Q38.31 7.65 38.50 7.75L38.50 7.75L38.50 7.75Q38.70 7.84 38.81 7.99L38.81 7.99L38.81 7.99Q38.92 8.15 38.97 8.35L38.97 8.35L38.97 8.35Q39.01 8.54 39.01 8.75L39.01 8.75L39.01 10.19L39.01 10.19Q39.14 9.58 39.38 9.11L39.38 9.11L39.38 9.11Q39.63 8.63 39.90 8.31L39.90 8.31L39.90 8.31Q40.17 7.98 40.43 7.82L40.43 7.82L40.43 7.82Q40.69 7.65 40.84 7.65L40.84 7.65L40.84 7.65Q41.04 7.65 41.17 7.71L41.17 7.71L41.17 7.71Q41.29 7.78 41.36 7.91L41.36 7.91L41.36 7.91Q41.43 8.04 41.45 8.23L41.45 8.23L41.45 8.23Q41.47 8.42 41.47 8.67L41.47 8.67L41.47 10.19L41.47 10.19Q41.60 9.58 41.85 9.11L41.85 9.11L41.85 9.11Q42.09 8.63 42.36 8.31L42.36 8.31L42.36 8.31Q42.64 7.98 42.90 7.82L42.90 7.82L42.90 7.82Q43.16 7.65 43.31 7.65L43.31 7.65L43.31 7.65Q43.70 7.65 43.82 7.91L43.82 7.91L43.82 7.91Q43.94 8.16 43.94 8.67L43.94 8.67L43.94 12.04L43.94 12.04Q43.94 12.21 44.02 12.30L44.02 12.30L44.02 12.30Q44.09 12.40 44.21 12.40L44.21 12.40L44.21 12.40Q44.32 12.41 44.46 12.32L44.46 12.32L44.46 12.32Q44.60 12.23 44.74 12.03L44.74 12.03ZM47.84 13.19L47.84 13.19L47.84 13.19Q47.33 13.19 46.89 13.01L46.89 13.01L46.89 13.01Q46.45 12.83 46.13 12.51L46.13 12.51L46.13 12.51Q45.80 12.19 45.61 11.75L45.61 11.75L45.61 11.75Q45.42 11.32 45.42 10.81L45.42 10.81L45.42 10.81Q45.42 10.23 45.62 9.72L45.62 9.72L45.62 9.72Q45.81 9.21 46.15 8.80L46.15 8.80L46.15 8.80Q46.48 8.39 46.95 8.09L46.95 8.09L46.95 8.09Q47.41 7.79 47.95 7.62L47.95 7.62L48.15 7.85L48.15 7.85Q47.84 8.08 47.57 8.37L47.57 8.37L47.57 8.37Q47.30 8.66 47.11 9.00L47.11 9.00L47.11 9.00Q46.91 9.34 46.79 9.71L46.79 9.71L46.79 9.71Q46.68 10.08 46.68 10.47L46.68 10.47L46.68 10.47Q46.68 10.80 46.77 11.16L46.77 11.16L46.77 11.16Q46.87 11.53 47.06 11.83L47.06 11.83L47.06 11.83Q47.25 12.13 47.54 12.32L47.54 12.32L47.54 12.32Q47.83 12.52 48.21 12.52L48.21 12.52L48.21 12.52Q48.56 12.52 48.81 12.39L48.81 12.39L48.81 12.39Q49.05 12.27 49.22 12.06L49.22 12.06L49.22 12.06Q49.38 11.85 49.46 11.56L49.46 11.56L49.46 11.56Q49.55 11.28 49.55 10.96L49.55 10.96L49.55 10.96Q49.55 10.60 49.40 10.21L49.40 10.21L49.40 10.21Q49.26 9.82 49.01 9.50L49.01 9.50L49.01 9.50Q48.76 9.17 48.43 8.95L48.43 8.95L48.43 8.95Q48.09 8.73 47.71 8.70L47.71 8.70L47.71 8.70Q47.95 8.42 48.23 8.19L48.23 8.19L48.23 8.19Q48.52 7.96 48.82 7.75L48.82 7.75L48.82 7.75Q49.21 7.88 49.52 8.13L49.52 8.13L49.52 8.13Q49.82 8.38 50.03 8.71L50.03 8.71L50.03 8.71Q50.24 9.04 50.35 9.42L50.35 9.42L50.35 9.42Q50.46 9.81 50.46 10.21L50.46 10.21L50.46 10.21Q50.46 10.75 50.27 11.28L50.27 11.28L50.27 11.28Q50.08 11.81 49.73 12.24L49.73 12.24L49.73 12.24Q49.39 12.67 48.91 12.93L48.91 12.93L48.91 12.93Q48.43 13.19 47.84 13.19ZM56.44 12.04L56.66 12.28L56.66 12.28Q56.55 12.46 56.40 12.62L56.40 12.62L56.40 12.62Q56.25 12.78 56.07 12.89L56.07 12.89L56.07 12.89Q55.89 13.01 55.69 13.08L55.69 13.08L55.69 13.08Q55.48 13.15 55.27 13.15L55.27 13.15L55.27 13.15Q55.00 13.15 54.71 12.95L54.71 12.95L54.71 12.95Q54.43 12.75 54.15 12.47L54.15 12.47L54.15 12.47Q53.88 12.20 53.63 11.90L53.63 11.90L53.63 11.90Q53.39 11.61 53.20 11.42L53.20 11.42L53.09 11.48L53.09 11.48Q53.05 11.61 53.03 11.79L53.03 11.79L53.03 11.79Q53.00 11.98 52.98 12.17L52.98 12.17L52.98 12.17Q52.96 12.37 52.95 12.56L52.95 12.56L52.95 12.56Q52.94 12.75 52.93 12.88L52.93 12.88L51.67 13.32L51.67 3.67L52.93 3.23L52.93 10.82L52.93 10.82Q53.01 10.57 53.12 10.24L53.12 10.24L53.12 10.24Q53.22 9.91 53.37 9.55L53.37 9.55L53.37 9.55Q53.52 9.20 53.71 8.86L53.71 8.86L53.71 8.86Q53.90 8.52 54.13 8.25L54.13 8.25L54.13 8.25Q54.37 7.98 54.65 7.81L54.65 7.81L54.65 7.81Q54.93 7.65 55.25 7.65L55.25 7.65L55.25 7.65Q55.45 7.65 55.61 7.72L55.61 7.72L55.61 7.72Q55.77 7.79 55.89 7.92L55.89 7.92L55.89 7.92Q56 8.04 56.06 8.20L56.06 8.20L56.06 8.20Q56.12 8.37 56.12 8.56L56.12 8.56L56.12 8.56Q56.12 8.95 55.93 9.30L55.93 9.30L55.93 9.30Q55.74 9.66 55.45 9.97L55.45 9.97L55.45 9.97Q55.16 10.27 54.82 10.52L54.82 10.52L54.82 10.52Q54.48 10.77 54.19 10.94L54.19 10.94L54.19 10.94Q54.28 11.02 54.41 11.16L54.41 11.16L54.41 11.16Q54.53 11.30 54.66 11.46L54.66 11.46L54.66 11.46Q54.80 11.61 54.94 11.78L54.94 11.78L54.94 11.78Q55.09 11.94 55.23 12.07L55.23 12.07L55.23 12.07Q55.38 12.20 55.52 12.28L55.52 12.28L55.52 12.28Q55.67 12.37 55.80 12.37L55.80 12.37L55.80 12.37Q56 12.37 56.16 12.28L56.16 12.28L56.16 12.28Q56.33 12.19 56.44 12.04L56.44 12.04ZM54.82 9.06L54.82 9.06L54.82 9.06Q54.82 8.94 54.72 8.84L54.72 8.84L54.72 8.84Q54.62 8.74 54.51 8.74L54.51 8.74L54.51 8.74Q54.37 8.74 54.23 8.87L54.23 8.87L54.23 8.87Q54.09 9.01 53.96 9.22L53.96 9.22L53.96 9.22Q53.83 9.43 53.71 9.69L53.71 9.69L53.71 9.69Q53.59 9.95 53.50 10.20L53.50 10.20L53.50 10.20Q53.40 10.45 53.33 10.65L53.33 10.65L53.33 10.65Q53.26 10.86 53.22 10.96L53.22 10.96L53.22 10.96Q53.32 10.90 53.47 10.76L53.47 10.76L53.47 10.76Q53.63 10.62 53.81 10.45L53.81 10.45L53.81 10.45Q53.98 10.27 54.16 10.08L54.16 10.08L54.16 10.08Q54.35 9.88 54.49 9.70L54.49 9.70L54.49 9.70Q54.64 9.51 54.73 9.34L54.73 9.34L54.73 9.34Q54.82 9.17 54.82 9.06ZM61.84 11.48L62.04 11.70L62.04 11.70Q61.80 12.01 61.52 12.28L61.52 12.28L61.52 12.28Q61.24 12.54 60.90 12.74L60.90 12.74L60.90 12.74Q60.57 12.94 60.20 13.06L60.20 13.06L60.20 13.06Q59.83 13.17 59.44 13.17L59.44 13.17L59.44 13.17Q58.93 13.17 58.51 12.99L58.51 12.99L58.51 12.99Q58.08 12.81 57.78 12.49L57.78 12.49L57.78 12.49Q57.47 12.17 57.30 11.74L57.30 11.74L57.30 11.74Q57.13 11.31 57.13 10.81L57.13 10.81L57.13 10.81Q57.13 10.40 57.24 10.00L57.24 10.00L57.24 10.00Q57.36 9.60 57.57 9.26L57.57 9.26L57.57 9.26Q57.78 8.91 58.07 8.61L58.07 8.61L58.07 8.61Q58.37 8.31 58.71 8.10L58.71 8.10L58.71 8.10Q59.06 7.89 59.45 7.77L59.45 7.77L59.45 7.77Q59.84 7.65 60.25 7.65L60.25 7.65L60.25 7.65Q60.54 7.65 60.80 7.72L60.80 7.72L60.80 7.72Q61.05 7.79 61.25 7.93L61.25 7.93L61.25 7.93Q61.45 8.08 61.56 8.31L61.56 8.31L61.56 8.31Q61.68 8.54 61.68 8.85L61.68 8.85L61.68 8.85Q61.68 9.11 61.53 9.40L61.53 9.40L61.53 9.40Q61.37 9.69 61.12 9.97L61.12 9.97L61.12 9.97Q60.87 10.26 60.56 10.54L60.56 10.54L60.56 10.54Q60.25 10.81 59.92 11.05L59.92 11.05L59.92 11.05Q59.60 11.29 59.29 11.46L59.29 11.46L59.29 11.46Q58.99 11.64 58.77 11.74L58.77 11.74L58.77 11.74Q59.02 12.05 59.36 12.25L59.36 12.25L59.36 12.25Q59.69 12.45 60.07 12.45L60.07 12.45L60.07 12.45Q60.31 12.45 60.55 12.36L60.55 12.36L60.55 12.36Q60.80 12.26 61.03 12.12L61.03 12.12L61.03 12.12Q61.26 11.98 61.47 11.81L61.47 11.81L61.47 11.81Q61.67 11.63 61.84 11.48L61.84 11.48ZM60.40 9.11L60.40 9.11L60.40 9.11Q60.40 8.95 60.34 8.80L60.34 8.80L60.34 8.80Q60.29 8.66 60.20 8.56L60.20 8.56L60.20 8.56Q60.10 8.45 59.97 8.38L59.97 8.38L59.97 8.38Q59.83 8.32 59.66 8.32L59.66 8.32L59.66 8.32Q59.36 8.32 59.10 8.53L59.10 8.53L59.10 8.53Q58.84 8.75 58.65 9.06L58.65 9.06L58.65 9.06Q58.46 9.38 58.35 9.73L58.35 9.73L58.35 9.73Q58.25 10.08 58.25 10.35L58.25 10.35L58.25 10.35Q58.25 10.61 58.33 10.88L58.33 10.88L58.33 10.88Q58.41 11.16 58.56 11.41L58.56 11.41L58.56 11.41Q58.83 11.26 59.15 10.99L59.15 10.99L59.15 10.99Q59.47 10.73 59.75 10.41L59.75 10.41L59.75 10.41Q60.03 10.09 60.21 9.75L60.21 9.75L60.21 9.75Q60.40 9.41 60.40 9.11Z"></path></g><!----><g data-v-423bf9ae="" id="16fc9aa5-0c30-44c2-95e5-a51f1c16db50" transform="matrix(2.8125,0,0,2.8125,0,0)" stroke="none" fill="#ADC4E2"><path d="M16 1c8.271 0 15 6.729 15 15s-6.729 15-15 15S1 24.271 1 16 7.729 1 16 1m0-1C7.163 0 0 7.163 0 16s7.163 16 16 16 16-7.163 16-16S24.837 0 16 0z"></path><path d="M16 7.045L24.955 16 16 24.955 7.045 16 16 7.045m0-1.414L5.631 16 16 26.369 26.369 16 16 5.631z"></path><path d="M16 12.538L19.462 16 16 19.462 12.538 16 16 12.538m0-1.414L11.124 16 16 20.876 20.876 16 16 11.124z"></path></g><!----></svg>